<svg width="38" height="32" viewBox="0 0 38 32" fill="none" xmlns="http://www.w3.org/2000/svg">
<path d="M0.957153 14.8058C0.957153 8.60421 1.52409 5.50238 3.29482 3.57632C5.06555 1.65027 7.91723 1.65027 13.6187 1.65027H24.3905C30.092 1.65027 32.9418 1.65027 34.7144 3.57632C36.487 5.50238 37.0521 8.60421 37.0521 14.8058V17.1944C37.0521 23.396 36.4851 26.4978 34.7144 28.4239C32.9437 30.3499 30.092 30.3499 24.3905 30.3499H13.6187C7.91723 30.3499 5.06555 30.3499 3.29482 28.4239C1.52409 26.4978 0.957153 23.396 0.957153 17.1944V14.8058Z" stroke="black" stroke-width="2.09777" stroke-linecap="round" stroke-linejoin="round"/>
<path d="M24.0803 14.9537L16.0147 9.47153C15.8431 9.35483 15.6458 9.29024 15.4434 9.28448C15.2411 9.27872 15.041 9.33199 14.8639 9.43877C14.6869 9.54554 14.5394 9.70192 14.4367 9.89167C14.334 10.0814 14.2798 10.2976 14.2799 10.5178V21.4842C14.2802 21.7042 14.3345 21.9201 14.4374 22.1096C14.5402 22.2991 14.6878 22.4551 14.8648 22.5617C15.0418 22.6682 15.2417 22.7213 15.4439 22.7154C15.6461 22.7096 15.8432 22.645 16.0147 22.5284L24.0803 17.0462C24.2436 16.9354 24.3782 16.7812 24.4715 16.5982C24.5649 16.4152 24.6139 16.2093 24.6139 16C24.6139 15.7907 24.5649 15.5848 24.4715 15.4017C24.3782 15.2187 24.2436 15.0645 24.0803 14.9537Z" stroke="black" stroke-width="2.09777" stroke-linejoin="round"/>
</svg>
