<svg width="32" height="32" viewBox="0 0 32 32" fill="none" xmlns="http://www.w3.org/2000/svg">
<path d="M1.14331 28.5715V3.42866C1.14331 2.82245 1.38413 2.24107 1.81278 1.81241C2.24144 1.38376 2.82282 1.14294 3.42903 1.14294H28.5719C29.1781 1.14294 29.7595 1.38376 30.1881 1.81241C30.6168 2.24107 30.8576 2.82245 30.8576 3.42866V28.5715C30.8576 29.1777 30.6168 29.7591 30.1881 30.1878C29.7595 30.6164 29.1781 30.8572 28.5719 30.8572H21.7148V20.023H23.3376C23.7074 20.023 24.062 19.8761 24.3235 19.6146C24.585 19.3531 24.7319 18.9985 24.7319 18.6287V16.8687C24.7319 16.4989 24.585 16.1442 24.3235 15.8828C24.062 15.6213 23.7074 15.4744 23.3376 15.4744H21.8062V13.3258C21.8062 11.4058 22.6748 11.4058 23.5433 11.4058H24.6633C24.8473 11.4134 25.0307 11.3805 25.2005 11.3094C25.3703 11.2383 25.5225 11.1307 25.6462 10.9944C25.779 10.8679 25.8842 10.7153 25.955 10.5461C26.0258 10.3769 26.0607 10.1949 26.0576 10.0115V8.32009C26.0637 8.13396 26.0331 7.94846 25.9674 7.77418C25.9018 7.59991 25.8025 7.44028 25.6751 7.30442C25.5477 7.16856 25.3948 7.05914 25.2251 6.98241C25.0555 6.90568 24.8723 6.86314 24.6862 6.85723H22.0576C21.2906 6.8284 20.5265 6.9664 19.8181 7.26171C19.1097 7.55701 18.4738 8.00258 17.9544 8.56764C17.4349 9.1327 17.0444 9.80378 16.8096 10.5345C16.5749 11.2653 16.5016 12.0382 16.5947 12.8001V15.4744H15.1319C14.9469 15.4713 14.7631 15.5052 14.5913 15.5739C14.4195 15.6426 14.2631 15.7448 14.1312 15.8746C13.9993 16.0044 13.8945 16.1591 13.823 16.3298C13.7515 16.5004 13.7147 16.6836 13.7147 16.8687V18.6287C13.7147 18.8137 13.7515 18.9969 13.823 19.1676C13.8945 19.3382 13.9993 19.493 14.1312 19.6227C14.2631 19.7525 14.4195 19.8547 14.5913 19.9235C14.7631 19.9922 14.9469 20.026 15.1319 20.023H16.5947V30.8572H3.42903C2.82282 30.8572 2.24144 30.6164 1.81278 30.1878C1.38413 29.7591 1.14331 29.1777 1.14331 28.5715Z" stroke="black" stroke-width="2.39745" stroke-linecap="round" stroke-linejoin="round"/>
</svg>
