<svg width="37" height="37" viewBox="0 0 37 37" fill="none" xmlns="http://www.w3.org/2000/svg">
<g clip-path="url(#clip0_543_15697)">
<path d="M18.0428 0C13.1464 0 12.5307 0.0225532 10.6069 0.108255C8.68308 0.198468 7.37272 0.500681 6.22475 0.947234C5.02005 1.39903 3.92913 2.10962 3.02893 3.02889C2.10965 3.92908 1.39905 5.01999 0.947245 6.22468C0.500687 7.37038 0.196215 8.68298 0.108257 10.6C0.0225535 12.5283 0 13.1417 0 18.0448C0 22.9434 0.0225535 23.5568 0.108257 25.4806C0.19847 27.4021 0.500687 28.7125 0.947245 29.8604C1.40959 31.0467 2.0253 32.0526 3.02893 33.0562C4.0303 34.0598 5.03619 34.6778 6.2225 35.1379C7.37272 35.5844 8.68082 35.8889 10.6024 35.9768C12.5284 36.0626 13.1419 36.0851 18.0428 36.0851C22.9436 36.0851 23.5548 36.0626 25.4809 35.9768C27.4002 35.8866 28.7151 35.5844 29.863 35.1379C31.0669 34.6858 32.157 33.9752 33.0566 33.0562C34.0602 32.0526 34.6759 31.0467 35.1383 29.8604C35.5826 28.7125 35.887 27.4021 35.9773 25.4806C36.063 23.5568 36.0855 22.9434 36.0855 18.0426C36.0855 13.1417 36.063 12.5283 35.9773 10.6023C35.887 8.68298 35.5826 7.37038 35.1383 6.22468C34.6865 5.01999 33.9759 3.92908 33.0566 3.02889C32.1564 2.10962 31.0655 1.39903 29.8608 0.947234C28.7105 0.500681 27.3979 0.196213 25.4786 0.108255C23.5526 0.0225532 22.9414 0 18.0382 0H18.0428ZM16.4257 3.25217H18.045C22.8624 3.25217 23.433 3.26796 25.3343 3.35591C27.0935 3.43485 28.0497 3.7303 28.6857 3.97613C29.527 4.30315 30.1292 4.69557 30.7606 5.32706C31.3921 5.95855 31.7823 6.55847 32.1093 7.40196C32.3574 8.0357 32.6506 8.99196 32.7296 10.7511C32.8175 12.6523 32.8356 13.2229 32.8356 18.038C32.8356 22.8531 32.8175 23.426 32.7296 25.3272C32.6506 27.0864 32.3552 28.0404 32.1093 28.6764C31.818 29.4588 31.3566 30.1667 30.7584 30.749C30.1269 31.3805 29.527 31.7707 28.6835 32.0977C28.052 32.3458 27.0957 32.639 25.3343 32.7202C23.433 32.8059 22.8624 32.8262 18.045 32.8262C13.2276 32.8262 12.6547 32.8059 10.7535 32.7202C8.99432 32.639 8.0403 32.3458 7.4043 32.0977C6.62132 31.8073 5.91261 31.3467 5.32938 30.749C4.73008 30.1663 4.26785 29.4575 3.97617 28.6741C3.73034 28.0404 3.43489 27.0841 3.35595 25.325C3.27025 23.4237 3.25221 22.8531 3.25221 18.0335C3.25221 13.2139 3.27025 12.6478 3.35595 10.7466C3.43715 8.98745 3.73034 8.03119 3.97843 7.39519C4.30545 6.55396 4.69788 5.95179 5.32938 5.3203C5.96088 4.68881 6.5608 4.29864 7.4043 3.97162C8.0403 3.72353 8.99432 3.43034 10.7535 3.34915C12.4179 3.27247 13.063 3.24991 16.4257 3.24766V3.25217ZM27.6753 6.24723C27.391 6.24723 27.1095 6.30324 26.8468 6.41204C26.5841 6.52085 26.3454 6.68033 26.1444 6.88138C25.9433 7.08243 25.7838 7.32111 25.675 7.58379C25.5662 7.84647 25.5102 8.12801 25.5102 8.41234C25.5102 8.69667 25.5662 8.97821 25.675 9.24089C25.7838 9.50357 25.9433 9.74225 26.1444 9.9433C26.3454 10.1444 26.5841 10.3038 26.8468 10.4126C27.1095 10.5214 27.391 10.5774 27.6753 10.5774C28.2496 10.5774 28.8003 10.3493 29.2063 9.9433C29.6124 9.53727 29.8405 8.98656 29.8405 8.41234C29.8405 7.83812 29.6124 7.28742 29.2063 6.88138C28.8003 6.47534 28.2496 6.24723 27.6753 6.24723ZM18.045 8.7777C16.816 8.75853 15.5955 8.98403 14.4545 9.44108C13.3134 9.89814 12.2747 10.5776 11.3989 11.4399C10.523 12.3023 9.82736 13.3302 9.35256 14.4639C8.87776 15.5977 8.63324 16.8145 8.63324 18.0437C8.63324 19.2728 8.87776 20.4897 9.35256 21.6234C9.82736 22.7571 10.523 23.7851 11.3989 24.6474C12.2747 25.5098 13.3134 26.1892 14.4545 26.6463C15.5955 27.1033 16.816 27.3288 18.045 27.3097C20.4775 27.2717 22.7975 26.2788 24.5043 24.5452C26.211 22.8116 27.1677 20.4764 27.1677 18.0437C27.1677 15.6109 26.211 13.2757 24.5043 11.5422C22.7975 9.80858 20.4775 8.81565 18.045 8.7777ZM18.045 12.0276C18.8349 12.0276 19.6171 12.1832 20.3469 12.4855C21.0766 12.7878 21.7397 13.2308 22.2983 13.7894C22.8568 14.3479 23.2999 15.011 23.6022 15.7407C23.9044 16.4705 24.06 17.2527 24.06 18.0426C24.06 18.8324 23.9044 19.6146 23.6022 20.3444C23.2999 21.0741 22.8568 21.7372 22.2983 22.2958C21.7397 22.8543 21.0766 23.2973 20.3469 23.5996C19.6171 23.9019 18.8349 24.0575 18.045 24.0575C16.4497 24.0575 14.9198 23.4238 13.7918 22.2958C12.6637 21.1677 12.03 19.6378 12.03 18.0426C12.03 16.4473 12.6637 14.9174 13.7918 13.7894C14.9198 12.6613 16.4497 12.0276 18.045 12.0276Z" fill="white"/>
</g>
<defs>
<clipPath id="clip0_543_15697">
<rect width="36.0855" height="36.0851" fill="white"/>
</clipPath>
</defs>
</svg>
